<svg xmlns="http://www.w3.org/2000/svg" height="800" width="1200" id="svg895" version="1.1" viewBox="-96 -98.908 832 593.448">
    <defs id="defs879">
        <style id="style877" type="text/css">
            .e {
                fill: #bbbbbb
            }
        </style>
    </defs>
    <path id="rect887" display="inline" fill="#dddddd" stroke-width="5.494" d="M 224.8 42.3 h 190.4 v 311 H 224.8 z" />
    <path id="path889" d="M244.446 197.828a197.448 197.448 0 0175.54-155.475 197.777 197.777 0 100 311.004 197.448 197.448 0 01-75.54-155.53z" fill="rgb(202, 202, 202)" stroke-width="5.494" />
    <path id="path891" d="M 621.1 320.4 v -6.4 h 2.7 v -1.3 h -6.5 v 1.3 h 2.6 v 6.4 z m 12.7 0 v -7.7 h -2 l -2.3 5.5 l -2.3 -5.5 h -2 v 7.7 h 1.4 v -5.8 l 2.1 5 h 1.5 l 2.1 -5 v 5.8 z" class="e" fill="#993737" stroke-width="5.494" />
    <path id="path893" d="M640 197.828a197.777 197.777 0 01-320.015 155.474 197.777 197.777 0 000-311.004A197.777 197.777 0 01640 197.773z" class="e" fill="rgb(161, 85, 85)" stroke-width="5.494" />
</svg>